HIERARCHY
ROOT hip
{
  OFFSET 0 0 0
  CHANNELS 6 Xposition Yposition Zposition Zrotation Yrotation Xrotation
  JOINT abdomen
  {
    OFFSET 0 20.6881 -0.73152
    CHANNELS 3 Zrotation Xrotation Yrotation
    JOINT chest
    {
      OFFSET 0 11.7043 -0.48768
      CHANNELS 3 Zrotation Xrotation Yrotation
      JOINT neck
      {
        OFFSET 0 22.1894 -2.19456
        CHANNELS 3 Zrotation Xrotation Yrotation
        JOINT head
        {
          OFFSET -0.24384 7.07133 1.2192
          CHANNELS 3 Zrotation Xrotation Yrotation
          JOINT leftEye
          {
            OFFSET 4.14528 8.04674 8.04672
            CHANNELS 3 Zrotation Xrotation Yrotation
            End Site
            {
              OFFSET 1 0 0
            }
          }
          JOINT rightEye
          {
            OFFSET -3.6576 8.04674 8.04672
            CHANNELS 3 Zrotation Xrotation Yrotation
            End Site
            {
              OFFSET 1 0 0
            }
          }
        }
      }
      JOINT rCollar
      {
        OFFSET -2.68224 19.2634 -4.8768
        CHANNELS 3 Zrotation Xrotation Yrotation
        JOINT rShldr
        {
          OFFSET -8.77824 -1.95073 1.46304
          CHANNELS 3 Zrotation Xrotation Yrotation
          JOINT rForeArm
          {
            OFFSET -28.1742 -1.7115 0.48768
            CHANNELS 3 Zrotation Xrotation Yrotation
            JOINT rHand
            {
              OFFSET -22.5879 0.773209 7.07136
              CHANNELS 3 Zrotation Xrotation Yrotation
              JOINT rThumb1
              {
                OFFSET -1.2192 -0.487915 3.41376
                CHANNELS 3 Zrotation Xrotation Yrotation
                JOINT rThumb2
                {
                  OFFSET -3.37035 -0.52449 3.41376
                  CHANNELS 3 Zrotation Xrotation Yrotation
                  End Site
                  {
                    OFFSET -1.78271 -1.18214 1.43049
                  }
                }
              }
              JOINT rIndex1
              {
                OFFSET -7.75947 0.938293 5.60832
                CHANNELS 3 Zrotation Xrotation Yrotation
                JOINT rIndex2
                {
                  OFFSET -2.54057 -0.884171 1.56538
                  CHANNELS 3 Zrotation Xrotation Yrotation
                  End Site
                  {
                    OFFSET -1.62519 -0.234802 1.16502
                  }
                }
              }
              JOINT rMid1
              {
                OFFSET -8.24714 1.18213 3.41376
                CHANNELS 3 Zrotation Xrotation Yrotation
                JOINT rMid2
                {
                  OFFSET -3.10165 -0.590103 1.0647
                  CHANNELS 3 Zrotation Xrotation Yrotation
                  End Site
                  {
                    OFFSET -2.48547 -0.328903 0.83742
                  }
                }
              }
              JOINT rRing1
              {
                OFFSET -8.82822 0.546677 1.51678
                CHANNELS 3 Zrotation Xrotation Yrotation
                JOINT rRing2
                {
                  OFFSET -2.60934 -0.819778 -0.0198488
                  CHANNELS 3 Zrotation Xrotation Yrotation
                  End Site
                  {
                    OFFSET -2.33842 -0.294052 0.168128
                  }
                }
              }
              JOINT rPinky1
              {
                OFFSET -8.27202 -0.0477905 -0.4584
                CHANNELS 3 Zrotation Xrotation Yrotation
                JOINT rPinky2
                {
                  OFFSET -1.82734 -0.647385 -0.700984
                  CHANNELS 3 Zrotation Xrotation Yrotation
                  End Site
                  {
                    OFFSET -1.69225 -0.51767 -0.607171
                  }
                }
              }
            }
          }
        }
      }
      JOINT lCollar
      {
        OFFSET 2.68224 19.2634 -4.8768
        CHANNELS 3 Zrotation Xrotation Yrotation
        JOINT lShldr
        {
          OFFSET 8.77824 -1.95073 1.46304
          CHANNELS 3 Zrotation Xrotation Yrotation
          JOINT lForeArm
          {
            OFFSET 28.1742 -1.7115 0.48768
            CHANNELS 3 Zrotation Xrotation Yrotation
            JOINT lHand
            {
              OFFSET 22.5879 0.773209 7.07136
              CHANNELS 3 Zrotation Xrotation Yrotation
              JOINT lThumb1
              {
                OFFSET 1.2192 -0.487915 3.41376
                CHANNELS 3 Zrotation Xrotation Yrotation
                JOINT lThumb2
                {
                  OFFSET 3.37035 -0.52449 3.41376
                  CHANNELS 3 Zrotation Xrotation Yrotation
                  End Site
                  {
                    OFFSET 1.78271 -1.18214 1.43049
                  }
                }
              }
              JOINT lIndex1
              {
                OFFSET 7.75947 0.938293 5.60832
                CHANNELS 3 Zrotation Xrotation Yrotation
                JOINT lIndex2
                {
                  OFFSET 2.54057 -0.884171 1.56538
                  CHANNELS 3 Zrotation Xrotation Yrotation
                  End Site
                  {
                    OFFSET 1.62519 -0.234802 1.16502
                  }
                }
              }
              JOINT lMid1
              {
                OFFSET 8.24714 1.18213 3.41376
                CHANNELS 3 Zrotation Xrotation Yrotation
                JOINT lMid2
                {
                  OFFSET 3.10165 -0.590103 1.0647
                  CHANNELS 3 Zrotation Xrotation Yrotation
                  End Site
                  {
                    OFFSET 2.48547 -0.328903 0.83742
                  }
                }
              }
              JOINT lRing1
              {
                OFFSET 8.82822 0.546677 1.51678
                CHANNELS 3 Zrotation Xrotation Yrotation
                JOINT lRing2
                {
                  OFFSET 2.60934 -0.819778 -0.0198488
                  CHANNELS 3 Zrotation Xrotation Yrotation
                  End Site
                  {
                    OFFSET 2.33842 -0.294052 0.168128
                  }
                }
              }
              JOINT lPinky1
              {
                OFFSET 8.27202 -0.0477905 -0.4584
                CHANNELS 3 Zrotation Xrotation Yrotation
                JOINT lPinky2
                {
                  OFFSET 1.82734 -0.647385 -0.700984
                  CHANNELS 3 Zrotation Xrotation Yrotation
                  End Site
                  {
                    OFFSET 1.69225 -0.51767 -0.607171
                  }
                }
              }
            }
          }
        }
      }
    }
  }
  JOINT rButtock
  {
    OFFSET -8.77824 4.35084 1.2192
    CHANNELS 3 Zrotation Xrotation Yrotation
    JOINT rThigh
    {
      OFFSET 0 -1.70687 -2.19456
      CHANNELS 3 Zrotation Xrotation Yrotation
      JOINT rShin
      {
        OFFSET 0 -36.8199 0.73152
        CHANNELS 3 Zrotation Xrotation Yrotation
        JOINT rFoot
        {
          OFFSET 0.73152 -45.1104 -5.12064
          CHANNELS 3 Zrotation Xrotation Yrotation
          End Site
          {
            OFFSET -1.1221 -3.69964 12.103
          }
        }
      }
    }
  }
  JOINT lButtock
  {
    OFFSET 8.77824 4.35084 1.2192
    CHANNELS 3 Zrotation Xrotation Yrotation
    JOINT lThigh
    {
      OFFSET 0 -1.70687 -2.19456
      CHANNELS 3 Zrotation Xrotation Yrotation
      JOINT lShin
      {
        OFFSET 0 -36.8199 0.73152
        CHANNELS 3 Zrotation Xrotation Yrotation
        JOINT lFoot
        {
          OFFSET -0.73152 -45.1104 -5.12064
          CHANNELS 3 Zrotation Xrotation Yrotation
          End Site
          {
            OFFSET 1.1221 -3.69964 12.103
          }
        }
      }
    }
  }
}
MOTION
Frames:	5
Frame Time:	0.00833333
-4.59529 83.9933 -6.70527 0.0 0.0 0.0 -1.70624 -0.00254488 -0.0464508 -0.470568 0.00242767 -0.081486 5.53247e-14 1.59028e-15 -1.98785e-16 1.66442e-13 9.54166e-15 -8.51047e-16 -0.0 0.0 0.0 -0.0 0.0 0.0 2.79294e-14 9.39568e-17 4.96962e-17 5.82152e-13 2.01269e-15 -5.96354e-16 1.00046e-11 -2.9277e-12 -1.52667e-13 1.14531e-10 3.35337e-12 -4.0075e-13 2.70148e-10 9.22021e-13 -1.18635e-12 4.66523e-10 1.59028e-12 -2.06736e-12 2.70152e-10 9.19975e-13 -1.20225e-12 7.73091 5.47488 0.417314 2.70147e-10 9.21466e-13 -1.18953e-12 2.90554 0.965183 0.102902 2.70146e-10 9.21665e-13 -1.19191e-12 10.2786 0.731801 0.0259123 2.70141e-10 9.24746e-13 -1.17999e-12 2.22167 -0.733487 -0.20892 2.76328e-14 9.51216e-17 -3.47873e-16 5.81481e-13 1.90709e-15 -1.78906e-15 1.00156e-11 3.0579e-12 -1.52667e-13 1.14543e-10 -2.63859e-12 -3.72125e-13 2.702e-10 9.10385e-13 -1.18635e-12 4.66635e-10 1.57119e-12 -2.05384e-12 2.70197e-10 9.09241e-13 -1.17681e-12 -7.73091 5.47488 -0.417314 2.70204e-10 9.09241e-13 -1.18953e-12 -2.90554 0.965183 -0.102902 2.70197e-10 9.10136e-13 -1.18396e-12 -10.2786 0.731801 -0.0259123 2.70209e-10 9.12422e-13 -1.19271e-12 -2.22167 -0.733487 0.20892 -2.03217e-16 0.0 -3.88251e-19 -0.810316 -1.92439 -0.00361798 -0.00901749 -2.07859 -0.074331 -0.48417 3.99774 0.136183 2.03217e-16 0.0 3.88251e-19 -1.7862 -6.85425 0.170463 -0.00324004 6.85145 -0.0864038 0.512733 -0.0023435 -0.0581584
-4.55484 81.7489 -8.06996 0.7611 -1.5524 6.5624 -1.98277 1.83205 -0.53307 0.397846 -0.950598 -0.21275 -2.99716 -1.98403 -0.992974 2.92533 0.0358664 -0.749019 -0.0 0.0 0.0 -0.0 0.0 0.0 1.83571e-14 -4.78998e-15 -2.59391e-15 21.8166 6.05301 0.956514 -4.98133 -2.43889 7.58053 0.0488106 4.90955 0.680909 3.11894e-10 -1.16221e-10 2.27285e-11 5.3919e-10 -2.00259e-10 3.71736e-11 3.11901e-10 -1.16226e-10 2.27189e-11 7.73091 5.47488 0.417314 3.11894e-10 -1.16226e-10 2.27309e-11 2.90554 0.965183 0.102902 3.11898e-10 -1.16225e-10 2.2727e-11 10.2786 0.731801 0.0259123 3.11888e-10 -1.1622e-10 2.27368e-11 2.22167 -0.733487 -0.20892 1.81048e-14 -4.78849e-15 -2.90296e-15 -22.2214 5.68848 -0.905497 4.66811 -2.21858 -7.18232 -0.00013735 0.315016 -0.0442708 2.19373e-10 6.37192e-12 1.18142e-10 3.79067e-10 1.09999e-11 2.04811e-10 2.19371e-10 6.37197e-12 1.18154e-10 -7.73091 5.47488 -0.417314 2.19376e-10 6.37046e-12 1.18141e-10 -2.90554 0.965183 -0.102902 2.19369e-10 6.37087e-12 1.18146e-10 -10.2786 0.731801 -0.0259123 2.1938e-10 6.37185e-12 1.18137e-10 -2.22167 -0.733487 0.20892 -2.03217e-16 0.0 -3.88251e-19 -1.74722 -9.22772 0.271755 0.026297 12.2925 0.136956 -0.635841 -3.10602 -0.841141 2.03217e-16 0.0 3.88251e-19 -1.11375 -12.944 1.90235 -0.00235989 18.9085 -0.273242 0.685243 -5.55451 0.891961
-4.57182 81.3563 -8.21268 0.6552 -1.3969 6.5376 -2.24847 3.74132 -1.0471 1.31426 -1.95455 -0.351079 -6.24303 -4.07909 -2.04949 6.01976 0.109324 -1.54882 -0.0 0.0 0.0 -0.0 0.0 0.0 7.9091e-15 -1.47693e-14 -5.27711e-15 44.6538 12.5224 1.98724 -9.55853 -4.87996 15.6477 -0.0285087 10.1244 1.42137 3.61359e-10 -2.70867e-10 8.00389e-11 6.25663e-10 -4.67215e-10 1.33897e-10 3.61369e-10 -2.70876e-10 8.00361e-11 7.73091 5.47488 0.417314 3.61361e-10 -2.70875e-10 8.00474e-11 2.90554 0.965183 0.102902 3.61369e-10 -2.70875e-10 8.00418e-11 10.2786 0.731801 0.0259123 3.61354e-10 -2.70866e-10 8.00492e-11 2.22167 -0.733487 -0.20892 7.70221e-15 -1.47674e-14 -5.48832e-15 -45.5429 11.7548 -1.86848 9.00745 -4.45092 -14.8158 0.000297401 0.668543 -0.093959 1.63256e-10 -3.25422e-11 2.30064e-10 2.82302e-10 -5.63743e-11 3.98996e-10 1.63254e-10 -3.25409e-11 2.30078e-10 -7.73091 5.47488 -0.417314 1.63259e-10 -3.25441e-11 2.30065e-10 -2.90554 0.965183 -0.102902 1.63251e-10 -3.25442e-11 2.30069e-10 -10.2786 0.731801 -0.0259123 1.63261e-10 -3.25447e-11 2.3006e-10 -2.22167 -0.733487 0.20892 -2.03217e-16 0.0 -3.88251e-19 -2.66975 -16.9121 0.578132 -0.063033 27.411 0.397635 -1.05941 -10.6011 -1.89433 2.03217e-16 0.0 3.88251e-19 -0.00481535 -19.3131 3.83482 0.0983602 31.5758 -0.517006 1.08079 -11.4154 1.95667
-4.60308 80.9529 -8.31102 0.5207 -1.3774 6.4943 -2.44199 5.49956 -1.51245 2.12156 -2.85657 -0.47578 -9.19862 -5.94492 -2.99325 8.77879 0.107526 -2.24706 -0.0 0.0 0.0 -0.0 0.0 0.0 -7.87575e-16 -1.45578e-14 -7.88111e-15 64.8168 18.1382 3.00289 -13.053 -6.80549 22.8912 -0.213669 14.7202 2.10433 3.95385e-10 -3.50509e-10 7.05582e-11 6.84525e-10 -6.03958e-10 1.15656e-10 3.95399e-10 -3.50519e-10 7.05613e-11 7.73091 5.47488 0.417314 3.95389e-10 -3.5052e-10 7.05718e-11 2.90554 0.965183 0.102902 3.95401e-10 -3.50519e-10 7.05649e-11 10.2786 0.731801 0.0259123 3.95381e-10 -3.50509e-10 7.05703e-11 2.22167 -0.733487 -0.20892 -9.51083e-16 -1.45557e-14 -8.01312e-15 -66.1041 17.048 -2.82745 12.3711 -6.2383 -21.6654 0.00104854 0.945045 -0.132829 1.17718e-10 1.7295e-11 3.56799e-10 2.03931e-10 2.98574e-11 6.1854e-10 1.17718e-10 1.72974e-11 3.56815e-10 -7.73091 5.47488 -0.417314 1.17722e-10 1.72929e-11 3.56802e-10 -2.90554 0.965183 -0.102902 1.17713e-10 1.72924e-11 3.56806e-10 -10.2786 0.731801 -0.0259123 1.17721e-10 1.72907e-11 3.56796e-10 -2.22167 -0.733487 0.20892 -2.03217e-16 0.0 -3.88251e-19 -3.39334 -23.8321 0.887636 -0.299675 41.0324 0.729139 -1.69123 -17.2934 -2.92369 2.03217e-16 0.0 3.88251e-19 1.43992 -25.0326 5.76675 0.317967 43.0203 -0.826039 1.60271 -16.6407 2.90124
-4.64605 80.5591 -8.35963 0.3941 -1.4071 6.2613 -2.51829 6.88171 -1.85082 2.66518 -3.50382 -0.565964 -11.2811 -7.2446 -3.64141 10.693 -0.0821804 -2.69138 -0.0 0.0 0.0 -0.0 0.0 0.0 -5.10606e-15 1.11304e-14 -1.02871e-14 78.7489 21.639 3.85098 -15.166 -7.93484 27.9309 -0.403943 17.7765 2.58257 3.90815e-10 -2.42638e-10 -1.059e-10 6.74362e-10 -4.15167e-10 -1.89995e-10 3.90831e-10 -2.4265e-10 -1.05893e-10 7.73091 5.47488 0.417314 3.9082e-10 -2.42651e-10 -1.05884e-10 2.90554 0.965183 0.102902 3.90833e-10 -2.4265e-10 -1.05891e-10 10.2786 0.731801 0.0259123 3.90811e-10 -2.42639e-10 -1.05887e-10 2.22167 -0.733487 -0.20892 -5.23109e-15 1.11327e-14 -1.03865e-14 -80.1544 20.4234 -3.672 14.4388 -7.31411 -26.4414 0.00129875 1.02899 -0.14463 9.8629e-11 2.89011e-10 5.20568e-10 1.71548e-10 5.00104e-10 9.01481e-10 9.86298e-11 2.89014e-10 5.20584e-10 -7.73091 5.47488 -0.417314 9.86324e-11 2.89009e-10 5.20571e-10 -2.90554 0.965183 -0.102902 9.86243e-11 2.89008e-10 5.20574e-10 -10.2786 0.731801 -0.0259123 9.86312e-11 2.89006e-10 5.20565e-10 -2.22167 -0.733487 0.20892 -2.03217e-16 0.0 -3.88251e-19 -3.7796 -28.8431 1.14801 -0.627527 50.9128 1.09701 -2.3189 -21.9981 -3.76362 2.03217e-16 0.0 3.88251e-19 2.87817 -29.2041 7.36929 0.605317 51.41 -1.15614 1.99984 -20.2971 3.43354
